<?xml version="1.0" standalone="no"?>
<!DOCTYPE svg PUBLIC "-//W3C//DTD SVG 20010904//EN"
 "http://www.w3.org/TR/2001/REC-SVG-20010904/DTD/svg10.dtd">
<svg version="1.0" xmlns="http://www.w3.org/2000/svg"
 width="1024.000000pt" height="1024.000000pt" viewBox="0 0 1024.000000 1024.000000"
 preserveAspectRatio="xMidYMid meet">

<g transform="translate(0.000000,1024.000000) scale(0.100000,-0.100000)"
fill="#000000" stroke="none">
<path d="M5272 9553 l-122 -55 88 -59 c48 -32 96 -66 107 -76 11 -10 43 -36
70 -58 93 -74 269 -237 545 -505 397 -385 508 -485 793 -711 l149 -119 -72
-33 -73 -33 154 -126 c523 -428 917 -834 1276 -1318 722 -971 1088 -2044 1042
-3056 -20 -468 -116 -855 -304 -1239 -134 -275 -283 -483 -495 -695 -214 -215
-434 -370 -715 -506 -334 -161 -626 -239 -997 -266 -356 -26 -760 38 -1115
178 -267 105 -573 285 -818 480 -133 106 -451 423 -556 554 -641 797 -1013
1815 -1104 3015 -26 343 -19 908 16 1248 6 60 9 111 6 113 -2 3 -39 -11 -81
-30 l-77 -36 5 28 c19 88 52 404 66 627 6 94 15 454 20 800 8 604 16 741 46
889 7 34 17 36 -138 -31 l-106 -47 -6 -41 c-18 -128 -28 -365 -36 -900 -6
-330 -14 -647 -19 -705 -6 -58 -10 -117 -11 -132 0 -19 -19 -48 -61 -95 -212
-234 -446 -539 -689 -899 -302 -446 -439 -620 -871 -1106 -412 -462 -534 -616
-660 -828 -168 -285 -238 -543 -226 -830 10 -232 64 -424 187 -675 267 -545
643 -808 1258 -880 169 -20 567 -19 982 1 333 17 1065 14 1192 -4 53 -7 61
-12 150 -97 473 -452 1048 -763 1644 -889 255 -53 337 -61 669 -60 266 0 329
3 445 21 650 102 1232 355 1725 750 142 113 367 338 479 478 384 481 611 1023
697 1670 24 185 35 562 21 735 l-10 124 35 111 c102 326 144 603 144 959 0
288 -26 504 -95 781 -65 262 -149 483 -287 755 -434 856 -1167 1452 -2079
1691 -236 61 -560 108 -762 110 -51 0 -100 3 -110 7 -23 10 -193 167 -498 460
-338 326 -525 492 -665 589 l-30 21 -123 -55z m-2558 -3493 c-14 -102 -38
-339 -50 -485 -6 -76 -9 -85 -16 -60 -19 63 -21 295 -4 388 15 77 74 263 81
255 1 -2 -3 -46 -11 -98z"/>
<path d="M5488 6240 c-347 -42 -636 -335 -788 -798 -72 -220 -102 -424 -102
-682 0 -349 63 -635 206 -925 102 -208 211 -364 369 -524 163 -165 313 -276
506 -375 401 -205 807 -228 1148 -66 153 72 272 158 403 290 291 291 440 645
440 1045 0 467 -195 873 -618 1289 -505 497 -1136 797 -1564 746z m248 -1047
c67 -23 154 -110 177 -177 73 -214 -85 -429 -303 -413 -82 5 -146 33 -200 87
-148 148 -105 402 84 491 73 34 163 39 242 12z"/>
</g>
</svg>
