<?xml version="1.0" standalone="no"?>
<!DOCTYPE svg PUBLIC "-//W3C//DTD SVG 20010904//EN"
 "http://www.w3.org/TR/2001/REC-SVG-20010904/DTD/svg10.dtd">
<svg version="1.0" xmlns="http://www.w3.org/2000/svg"
 width="512.000000pt" height="512.000000pt" viewBox="0 0 512.000000 512.000000"
 preserveAspectRatio="xMidYMid meet">

<g transform="translate(0.000000,512.000000) scale(0.100000,-0.100000)"
fill="#000000" stroke="none">
<path d="M2518 5105 c-38 -21 -48 -67 -48 -222 l0 -133 -27 -6 c-380 -84 -696
-444 -923 -1054 -89 -238 -155 -391 -295 -680 -158 -328 -203 -443 -271 -688
-113 -413 -119 -776 -19 -1107 176 -580 630 -1012 1223 -1165 225 -58 579 -58
804 0 593 153 1047 585 1223 1165 100 331 94 694 -19 1107 -68 245 -113 360
-271 688 -140 289 -206 442 -295 680 -227 610 -543 970 -922 1054 l-28 6 0
133 c0 158 -10 201 -50 222 -36 18 -47 18 -82 0z m157 -539 c154 -40 299 -147
437 -321 122 -155 219 -335 312 -580 100 -264 156 -394 291 -675 172 -358 239
-528 299 -766 66 -258 86 -555 52 -764 -97 -591 -523 -1068 -1100 -1230 -250
-70 -562 -70 -812 0 -265 75 -506 219 -689 411 -421 444 -530 1002 -330 1686
65 225 103 316 275 673 128 265 179 384 286 665 190 501 454 820 744 901 60
16 174 17 235 0z"/>
<path d="M2430 2786 c-292 -81 -560 -432 -677 -885 -24 -94 -27 -124 -27 -266
0 -153 2 -164 32 -255 45 -134 109 -239 206 -335 134 -133 256 -200 430 -236
115 -24 217 -24 332 0 174 36 296 103 430 236 97 96 161 201 206 335 30 91 32
102 32 255 0 142 -3 172 -27 266 -118 456 -388 807 -682 885 -62 17 -195 16
-255 0z m191 -275 c60 -60 20 -151 -67 -151 -37 0 -84 51 -84 90 0 22 9 41 29
61 20 20 39 29 61 29 22 0 41 -9 61 -29z m177 -102 c46 -16 141 -147 212 -293
94 -191 137 -371 127 -521 -7 -104 -31 -181 -68 -218 -25 -25 -35 -29 -66 -24
-73 12 -96 64 -67 150 24 69 23 211 0 292 -49 172 -116 314 -200 425 -84 110
-77 158 30 200 1 0 15 -5 32 -11z"/>
</g>
</svg>
